<svg xmlns="http://www.w3.org/2000/svg" xmlns:xlink="http://www.w3.org/1999/xlink" width="100%" height="100%" fill-rule="evenodd" stroke-linejoin="round" stroke-miterlimit="2" clip-rule="evenodd" version="1.1" viewBox="0 0 16 16" xml:space="preserve"><rect id="canvas" width="16" height="16" x="0" y="0" fill="#f6f6f6" fill-opacity="0" fill-rule="nonzero"/><path id="outline" fill="#f6f6f6" fill-rule="nonzero" d="M6.814,14.21l2.474,0l4.948,-4.948l0,-1.099l-2.199,-2.199l-1.924,0l0,-4.123l-4.124,0l0,4.123l-1.924,0l-2.199,2.199l0,1.099l4.948,4.948Z"/><path id="iconBg" fill="#424242" fill-rule="nonzero" d="M3.241,8.713l1.374,-1.375l2.749,0l0,-4.123l1.374,0l0,4.123l2.749,0l1.374,1.375l-4.123,4.123l-1.374,0l-4.123,-4.123Zm4.947,2.748l2.749,-2.748l-5.772,0l2.749,2.748l0.274,0Z"/><path id="iconFg" fill="#f0eff1" fill-rule="nonzero" d="M5.165,8.713l2.749,2.748l0.274,0l2.749,-2.748l-5.772,0"/></svg>